PathFileType	4	(X/Y/Z)	4_coords_data.trc
DataRate	CameraRate	NumFrames	NumMarkers	Units	OrigDataRate	OrigDataStartFrame	OrigNumFrames
30.0	30.0	5	21	m	30.0	31	50
Frame#	Time	THUMB_TIP	THUMB_IP	THUMB_MCP	THUMB_CMC	INDEX_TIP	INDEX_DIP	INDEX_PIP	INDEX_MCP	MIDDLE_TIP	MIDDLE_DIP	MIDDLE_PIP	MIDDLE_MCP	RING_TIP	RING_DIP	RING_PIP	RING_MCP	PINKY_TIP	PINKY_DIP	PINKY_PIP	PINKY_MCP	WRIST
X1	Y1	Z1	X2	Y2	Z2	X3	Y3	Z3	X4	Y4	Z4	X5	Y5	Z5	X6	Y6	Z6	X7	Y7	Z7	X8	Y8	Z8	X9	Y9	Z9	X10	Y10	Z10	X11	Y11	Z11	X12	Y12	Z12	X13	Y13	Z13	X14	Y14	Z14	X15	Y15	Z15	X16	Y16	Z16	X17	Y17	Z17	X18	Y18	Z18	X19	Y19	Z19	X20	Y20	Z20	X21	Y21	Z21
30	1.0	-0.03752379989624023	-0.1264530029296875	1.0707099609375	-0.042394100189208986	-0.09894899749755859	1.0780999755859375	-0.06230160140991211	-0.0805552978515625	1.09668994140625	-0.07271959686279297	-0.043736499786376955	1.1061400146484375	-0.026270599365234376	-0.09010489654541015	0.9716640014648438	-0.03897000122070313	-0.08525070190429687	0.991905029296875	-0.05192470169067383	-0.07954219818115234	1.0133699951171875	-0.07303929901123046	-0.06888909912109376	1.0474300537109376	-0.02195709991455078	-0.05145790100097656	0.9495859985351562	-0.03352669906616211	-0.050535400390625	0.9741710205078125	-0.049067901611328124	-0.049021900177001955	1.0013800048828125	-0.07264299774169922	-0.044695098876953124	1.037239990234375	-0.021516399383544924	-0.015376199722290039	0.95014697265625	-0.03392770004272461	-0.016540500640869142	0.9734290161132813	-0.049346298217773435	-0.018381399154663088	0.999010009765625	-0.06877909851074218	-0.020921600341796874	1.0363900146484375	-0.025259700775146485	0.02678849983215332	0.9816810302734374	-0.03906000137329101	0.021207599639892577	0.9975369873046875	-0.05211180114746094	0.01486709976196289	1.012969970703125	-0.06527860260009766	0.002242140054702759	1.039780029296875	-0.10423500061035157	-0.014184800148010254	1.1208199462890625
31	1.0333333333333334	-0.02740570068359375	-0.11848200225830079	1.066760009765625	-0.037210201263427736	-0.09277310180664063	1.0758699951171875	-0.0592411003112793	-0.07781159973144532	1.095719970703125	-0.07174440002441407	-0.04242309951782226	1.1054100341796875	-0.020505199432373045	-0.0834352035522461	0.9734949951171875	-0.03551449966430664	-0.0801343994140625	0.9924739990234375	-0.05089250183105469	-0.07602330017089844	1.0128499755859375	-0.07449539947509766	-0.06773809814453124	1.0463499755859376	-0.016220699310302733	-0.04878250122070313	0.9527020263671875	-0.03035169982910156	-0.04822520065307617	0.97560498046875	-0.048587799072265625	-0.047125301361083984	1.0013200073242188	-0.07434300231933594	-0.043452899932861326	1.0360699462890626	-0.01599370002746582	-0.013021100044250488	0.9536339721679687	-0.03130529975891113	-0.014314200401306152	0.9747509765625	-0.04963019943237305	-0.016403099060058594	0.9985139770507813	-0.07050050354003906	-0.01964299964904785	1.0353699951171875	-0.021943199157714845	0.025846900939941405	0.9845139770507813	-0.03759199905395508	0.021570100784301757	0.9983770141601562	-0.05238759994506836	0.016122499465942384	1.0125599975585937	-0.066404296875	0.003672569990158081	1.038969970703125	-0.10418699645996093	-0.013645999908447266	1.1201300048828124
32	1.0666666666666667	-0.022465999603271485	-0.11287100219726562	1.0645400390625	-0.03514899826049805	-0.08897550201416016	1.075030029296875	-0.05801679992675781	-0.07569869995117187	1.0955799560546875	-0.07128420257568359	-0.040939899444580076	1.1051700439453125	-0.01620120048522949	-0.0802781982421875	0.97697998046875	-0.03296720123291016	-0.07769629669189453	0.9943270263671875	-0.05025859832763672	-0.07431980133056641	1.013510009765625	-0.07590129852294922	-0.06680269622802734	1.04597998046875	-0.01220009994506836	-0.049390701293945315	0.9562310180664062	-0.028006099700927736	-0.048368198394775394	0.9776950073242188	-0.04824980163574219	-0.04680899810791016	1.0018599853515624	-0.07596810150146484	-0.042557201385498046	1.0358699951171875	-0.010141500473022461	-0.014619000434875488	0.9588079833984375	-0.028281499862670898	-0.014901300430297852	0.9770390014648438	-0.049611698150634764	-0.016083799362182617	0.9982369995117187	-0.07165149688720703	-0.01869729995727539	1.0349000244140625	-0.017593799591064455	0.022179800033569334	0.9882949829101563	-0.034979900360107424	0.01998859977722168	0.9996799926757812	-0.05185919952392578	0.016198299407958985	1.011989990234375	-0.06691570281982422	0.004783639907836914	1.03852001953125	-0.1037689971923828	-0.012574000358581543	1.1193900146484375
33	1.1	-0.02025270080566406	-0.10925599670410156	1.0616500244140625	-0.034364498138427735	-0.08662319946289063	1.073530029296875	-0.057109199523925784	-0.07438870239257812	1.0950699462890625	-0.07062989807128907	-0.040236801147460935	1.105	-0.015628000259399415	-0.07961730194091797	0.9788920288085937	-0.03328060150146484	-0.07725879669189453	0.995260009765625	-0.05146369934082031	-0.0740009994506836	1.0136900024414062	-0.07756020355224609	-0.06643509674072266	1.0459000244140626	-0.011041000366210937	-0.05065560150146484	0.9585910034179688	-0.02785420036315918	-0.049169601440429686	0.9789199829101562	-0.04915240097045898	-0.04710829925537109	1.0021099853515625	-0.07767849731445313	-0.0421526985168457	1.036239990234375	-0.007230659961700439	-0.01683639907836914	0.9632310180664062	-0.027153299331665038	-0.01611949920654297	0.9790130004882812	-0.05048260116577148	-0.01638170051574707	0.99802001953125	-0.07270249938964844	-0.018344900131225587	1.034800048828125	-0.014998700141906738	0.0183882999420166	0.9919819946289062	-0.033439701080322265	0.018166599273681642	1.000969970703125	-0.0515010986328125	0.01570919990539551	1.0119500122070313	-0.0673491973876953	0.005164070129394531	1.0385899658203126	-0.1032490005493164	-0.011908699989318847	1.1196700439453124
34	1.1333333333333333	-0.018309600830078127	-0.10497100067138672	1.057550048828125	-0.03333750152587891	-0.08385320281982422	1.070949951171875	-0.05595909881591797	-0.07289209747314453	1.0936199951171874	-0.06982640075683594	-0.03963349914550781	1.1041199951171874	-0.01682900047302246	-0.07762899780273437	0.978614990234375	-0.03478810119628906	-0.07576399993896485	0.9945269775390625	-0.05336349868774414	-0.07294319915771484	1.012739990234375	-0.07936699676513671	-0.06590139770507812	1.0452099609375	-0.011477499961853028	-0.049720699310302735	0.9595289916992188	-0.02890250015258789	-0.04830039978027344	0.9790980224609375	-0.050856098175048825	-0.04632490158081055	1.001780029296875	-0.07967539978027344	-0.04150469970703125	1.035800048828125	-0.006909019947052002	-0.016930099487304687	0.9659550170898438	-0.02769729995727539	-0.015742799758911134	0.9798900146484375	-0.052040199279785156	-0.015650099754333496	0.9975900268554687	-0.07415380096435546	-0.01777669906616211	1.0347900390625	-0.014607099533081055	0.016452400207519532	0.9940180053710937	-0.033320301055908205	0.01743600082397461	1.001719970703125	-0.051946701049804686	0.015828100204467774	1.0119199829101562	-0.06820570373535156	0.005677010059356689	1.0386600341796874	-0.10244200134277344	-0.01181470012664795	1.1193499755859375
